<svg width="98" height="82" viewBox="0 0 98 82" fill="none" xmlns="http://www.w3.org/2000/svg">
<path d="M45 49.8097C45 51.9105 46.709 53.6195 48.8098 53.6195C50.9106 53.6195 52.62 51.9105 52.62 49.8097C52.62 47.709 50.9106 46 48.8098 46C46.709 46 45 47.709 45 49.8097ZM50.9794 49.8097C50.9794 51.006 50.0061 51.9788 48.8098 51.9788C47.6139 51.9788 46.6407 51.006 46.6407 49.8097C46.6407 48.6134 47.6139 47.6406 48.8098 47.6406C50.0061 47.6406 50.9794 48.6134 50.9794 49.8097Z" fill="#282828"/>
<path d="M49.2254 16.7099C50.7152 16.7099 51.9269 15.4982 51.9269 14.0084V12.9228C51.9269 12.2913 51.4129 11.7773 50.7815 11.7773H47.6694C47.0379 11.7773 46.524 12.2913 46.524 12.9228V14.0084C46.524 15.4982 47.7361 16.7099 49.2254 16.7099ZM48.1646 13.418H50.2863V14.0084C50.2863 14.5933 49.8103 15.0693 49.2254 15.0693C48.6405 15.0693 48.1646 14.5933 48.1646 14.0084V13.418Z" fill="#282828"/>
<path d="M65.6328 13.5326C66.0861 13.5326 66.4531 13.1656 66.4531 12.7123V4.24468C66.4531 1.90423 64.5489 0 62.2084 0H36.2447C33.9043 0 32 1.90423 32 4.24468V51.7552C32 54.0957 33.9043 55.9999 36.2447 55.9999H62.2084C64.5489 55.9999 66.4531 54.0961 66.4531 51.7552V15.7747C66.4531 15.3219 66.0861 14.9544 65.6328 14.9544C65.1799 14.9544 64.8125 15.3219 64.8125 15.7747V51.7552C64.8125 53.1912 63.6444 54.3593 62.2084 54.3593H36.2447C34.8087 54.3593 33.6407 53.1912 33.6407 51.7552V4.24468C33.6407 2.80871 34.8087 1.64062 36.2447 1.64062H62.2084C63.6444 1.64062 64.8125 2.80871 64.8125 4.24468V12.7123C64.8125 13.1656 65.1799 13.5326 65.6328 13.5326Z" fill="#282828"/>
<path d="M63.1714 43.7107V7.91431C63.1714 7.16876 62.5652 6.5625 61.82 6.5625H36.6326C35.8871 6.5625 35.2808 7.16876 35.2808 7.91431V43.7107C35.2808 44.4558 35.8871 45.0625 36.6326 45.0625H61.8196C62.5652 45.0625 63.1714 44.4562 63.1714 43.7107ZM61.5308 43.4219H36.9214V8.20312H61.5308V43.4219Z" fill="#282828"/>
<path d="M41.3357 29.8589H57.1165C58.0428 29.8589 58.7964 29.1052 58.7964 28.179V21.2576C58.7964 20.3313 58.0428 19.5776 57.1165 19.5776H41.3357C40.4095 19.5776 39.6558 20.3313 39.6558 21.2576V28.179C39.6558 29.1052 40.4095 29.8589 41.3357 29.8589ZM41.2964 21.2576C41.2964 21.2358 41.3139 21.2183 41.3357 21.2183H57.1165C57.1383 21.2183 57.1558 21.2358 57.1558 21.2576V28.179C57.1558 28.2007 57.1383 28.2183 57.1165 28.2183H41.3357C41.3139 28.2183 41.2964 28.2007 41.2964 28.179V21.2576Z" fill="#282828"/>
<path d="M41.3357 41.7812H57.1165C58.0428 41.7812 58.7964 41.0276 58.7964 40.1013V33.1799C58.7964 32.2537 58.0428 31.5 57.1165 31.5H50.8902C50.4374 31.5 50.0699 31.8674 50.0699 32.3203C50.0699 32.7736 50.4374 33.1406 50.8902 33.1406H57.1165C57.1383 33.1406 57.1558 33.1581 57.1558 33.1799V40.1013C57.1558 40.1231 57.1383 40.1406 57.1165 40.1406H41.3357C41.3139 40.1406 41.2964 40.1231 41.2964 40.1013V33.1799C41.2964 33.1581 41.3139 33.1406 41.3357 33.1406H47.8277C48.281 33.1406 48.648 32.7736 48.648 32.3203C48.648 31.8674 48.281 31.5 47.8277 31.5H41.3357C40.4095 31.5 39.6558 32.2537 39.6558 33.1799V40.1013C39.6558 41.0276 40.4095 41.7812 41.3357 41.7812Z" fill="#282828"/>
<path d="M7.296 74.696H2.432L1.536 77.176H0L4.032 66.088H5.712L9.72799 77.176H8.192L7.296 74.696ZM6.88 73.512L4.864 67.88L2.848 73.512H6.88ZM12.9413 70.024C13.2293 69.5227 13.6559 69.1067 14.2213 68.776C14.7973 68.4347 15.4639 68.264 16.2213 68.264C16.9999 68.264 17.7039 68.4507 18.3333 68.824C18.9733 69.1973 19.4746 69.7253 19.8373 70.408C20.1999 71.08 20.3813 71.864 20.3813 72.76C20.3813 73.6453 20.1999 74.4347 19.8373 75.128C19.4746 75.8213 18.9733 76.36 18.3333 76.744C17.7039 77.128 16.9999 77.32 16.2213 77.32C15.4746 77.32 14.8133 77.1547 14.2373 76.824C13.6719 76.4827 13.2399 76.0613 12.9413 75.56V81.336H11.4853V68.408H12.9413V70.024ZM18.8933 72.76C18.8933 72.0987 18.7599 71.5227 18.4933 71.032C18.2266 70.5413 17.8639 70.168 17.4053 69.912C16.9573 69.656 16.4613 69.528 15.9173 69.528C15.3839 69.528 14.8879 69.6613 14.4293 69.928C13.9813 70.184 13.6186 70.5627 13.3413 71.064C13.0746 71.5547 12.9413 72.1253 12.9413 72.776C12.9413 73.4373 13.0746 74.0187 13.3413 74.52C13.6186 75.0107 13.9813 75.3893 14.4293 75.656C14.8879 75.912 15.3839 76.04 15.9173 76.04C16.4613 76.04 16.9573 75.912 17.4053 75.656C17.8639 75.3893 18.2266 75.0107 18.4933 74.52C18.7599 74.0187 18.8933 73.432 18.8933 72.76ZM23.7538 70.024C24.0418 69.5227 24.4684 69.1067 25.0338 68.776C25.6098 68.4347 26.2764 68.264 27.0338 68.264C27.8124 68.264 28.5164 68.4507 29.1458 68.824C29.7858 69.1973 30.2871 69.7253 30.6498 70.408C31.0124 71.08 31.1938 71.864 31.1938 72.76C31.1938 73.6453 31.0124 74.4347 30.6498 75.128C30.2871 75.8213 29.7858 76.36 29.1458 76.744C28.5164 77.128 27.8124 77.32 27.0338 77.32C26.2871 77.32 25.6258 77.1547 25.0498 76.824C24.4844 76.4827 24.0524 76.0613 23.7538 75.56V81.336H22.2978V68.408H23.7538V70.024ZM29.7058 72.76C29.7058 72.0987 29.5724 71.5227 29.3058 71.032C29.0391 70.5413 28.6764 70.168 28.2178 69.912C27.7698 69.656 27.2738 69.528 26.7298 69.528C26.1964 69.528 25.7004 69.6613 25.2418 69.928C24.7938 70.184 24.4311 70.5627 24.1538 71.064C23.8871 71.5547 23.7538 72.1253 23.7538 72.776C23.7538 73.4373 23.8871 74.0187 24.1538 74.52C24.4311 75.0107 24.7938 75.3893 25.2418 75.656C25.7004 75.912 26.1964 76.04 26.7298 76.04C27.2738 76.04 27.7698 75.912 28.2178 75.656C28.6764 75.3893 29.0391 75.0107 29.3058 74.52C29.5724 74.0187 29.7058 73.432 29.7058 72.76ZM36.2143 77.32C35.5423 77.32 34.9396 77.208 34.4063 76.984C33.8729 76.7493 33.4516 76.4293 33.1423 76.024C32.8329 75.608 32.6623 75.1333 32.6303 74.6H34.1343C34.1769 75.0373 34.3796 75.3947 34.7423 75.672C35.1156 75.9493 35.6009 76.088 36.1983 76.088C36.7529 76.088 37.1903 75.9653 37.5103 75.72C37.8303 75.4747 37.9903 75.1653 37.9903 74.792C37.9903 74.408 37.8196 74.1253 37.4783 73.944C37.1369 73.752 36.6089 73.5653 35.8943 73.384C35.2436 73.2133 34.7103 73.0427 34.2943 72.872C33.8889 72.6907 33.5369 72.4293 33.2383 72.088C32.9503 71.736 32.8063 71.2773 32.8063 70.712C32.8063 70.264 32.9396 69.8533 33.2063 69.48C33.4729 69.1067 33.8516 68.8133 34.3423 68.6C34.8329 68.376 35.3929 68.264 36.0223 68.264C36.9929 68.264 37.7769 68.5093 38.3743 69C38.9716 69.4907 39.2916 70.1627 39.3343 71.016H37.8783C37.8463 70.5573 37.6596 70.1893 37.3183 69.912C36.9876 69.6347 36.5396 69.496 35.9743 69.496C35.4516 69.496 35.0356 69.608 34.7263 69.832C34.4169 70.056 34.2623 70.3493 34.2623 70.712C34.2623 71 34.3529 71.24 34.5343 71.432C34.7263 71.6133 34.9609 71.7627 35.2383 71.88C35.5263 71.9867 35.9209 72.1093 36.4223 72.248C37.0516 72.4187 37.5636 72.5893 37.9583 72.76C38.3529 72.92 38.6889 73.1653 38.9663 73.496C39.2543 73.8267 39.4036 74.2587 39.4143 74.792C39.4143 75.272 39.2809 75.704 39.0143 76.088C38.7476 76.472 38.3689 76.776 37.8783 77C37.3983 77.2133 36.8436 77.32 36.2143 77.32ZM49.2073 66.024C50.4233 66.024 51.4739 66.2533 52.3593 66.712C53.2553 67.16 53.9379 67.8053 54.4073 68.648C54.8873 69.4907 55.1273 70.4827 55.1273 71.624C55.1273 72.7653 54.8873 73.7573 54.4073 74.6C53.9379 75.432 53.2553 76.072 52.3593 76.52C51.4739 76.9573 50.4233 77.176 49.2073 77.176H45.7353V66.024H49.2073ZM49.2073 75.976C50.6473 75.976 51.7459 75.5973 52.5033 74.84C53.2606 74.072 53.6393 73 53.6393 71.624C53.6393 70.2373 53.2553 69.1547 52.4873 68.376C51.7299 67.5973 50.6366 67.208 49.2073 67.208H47.1913V75.976H49.2073ZM65.0478 72.456C65.0478 72.7333 65.0318 73.0267 64.9998 73.336H57.9918C58.0451 74.2 58.3384 74.8773 58.8718 75.368C59.4158 75.848 60.0718 76.088 60.8398 76.088C61.4691 76.088 61.9918 75.944 62.4078 75.656C62.8344 75.3573 63.1331 74.9627 63.3038 74.472H64.8718C64.6371 75.3147 64.1678 76.0027 63.4638 76.536C62.7598 77.0587 61.8851 77.32 60.8398 77.32C60.0078 77.32 59.2611 77.1333 58.5998 76.76C57.9491 76.3867 57.4371 75.8587 57.0638 75.176C56.6904 74.4827 56.5038 73.6827 56.5038 72.776C56.5038 71.8693 56.6851 71.0747 57.0478 70.392C57.4104 69.7093 57.9171 69.1867 58.5678 68.824C59.2291 68.4507 59.9864 68.264 60.8398 68.264C61.6718 68.264 62.4078 68.4453 63.0478 68.808C63.6878 69.1707 64.1784 69.672 64.5198 70.312C64.8718 70.9413 65.0478 71.656 65.0478 72.456ZM63.5438 72.152C63.5438 71.5973 63.4211 71.1227 63.1758 70.728C62.9304 70.3227 62.5944 70.0187 62.1678 69.816C61.7518 69.6027 61.2878 69.496 60.7758 69.496C60.0398 69.496 59.4104 69.7307 58.8878 70.2C58.3758 70.6693 58.0824 71.32 58.0078 72.152H63.5438ZM70.0736 77.32C69.4016 77.32 68.799 77.208 68.2656 76.984C67.7323 76.7493 67.311 76.4293 67.0016 76.024C66.6923 75.608 66.5216 75.1333 66.4896 74.6H67.9936C68.0363 75.0373 68.239 75.3947 68.6016 75.672C68.975 75.9493 69.4603 76.088 70.0576 76.088C70.6123 76.088 71.0496 75.9653 71.3696 75.72C71.6896 75.4747 71.8496 75.1653 71.8496 74.792C71.8496 74.408 71.679 74.1253 71.3376 73.944C70.9963 73.752 70.4683 73.5653 69.7536 73.384C69.103 73.2133 68.5696 73.0427 68.1536 72.872C67.7483 72.6907 67.3963 72.4293 67.0976 72.088C66.8096 71.736 66.6656 71.2773 66.6656 70.712C66.6656 70.264 66.799 69.8533 67.0656 69.48C67.3323 69.1067 67.711 68.8133 68.2016 68.6C68.6923 68.376 69.2523 68.264 69.8816 68.264C70.8523 68.264 71.6363 68.5093 72.2336 69C72.831 69.4907 73.151 70.1627 73.1936 71.016H71.7376C71.7056 70.5573 71.519 70.1893 71.1776 69.912C70.847 69.6347 70.399 69.496 69.8336 69.496C69.311 69.496 68.895 69.608 68.5856 69.832C68.2763 70.056 68.1216 70.3493 68.1216 70.712C68.1216 71 68.2123 71.24 68.3936 71.432C68.5856 71.6133 68.8203 71.7627 69.0976 71.88C69.3856 71.9867 69.7803 72.1093 70.2816 72.248C70.911 72.4187 71.423 72.5893 71.8176 72.76C72.2123 72.92 72.5483 73.1653 72.8256 73.496C73.1136 73.8267 73.263 74.2587 73.2736 74.792C73.2736 75.272 73.1403 75.704 72.8736 76.088C72.607 76.472 72.2283 76.776 71.7376 77C71.2576 77.2133 70.703 77.32 70.0736 77.32ZM76.081 66.984C75.8037 66.984 75.569 66.888 75.377 66.696C75.185 66.504 75.089 66.2693 75.089 65.992C75.089 65.7147 75.185 65.48 75.377 65.288C75.569 65.096 75.8037 65 76.081 65C76.3477 65 76.5717 65.096 76.753 65.288C76.945 65.48 77.041 65.7147 77.041 65.992C77.041 66.2693 76.945 66.504 76.753 66.696C76.5717 66.888 76.3477 66.984 76.081 66.984ZM76.785 68.408V77.176H75.329V68.408H76.785ZM82.8825 68.264C83.6398 68.264 84.3012 68.4293 84.8665 68.76C85.4425 69.0907 85.8692 69.5067 86.1465 70.008V68.408H87.6185V77.368C87.6185 78.168 87.4478 78.8773 87.1065 79.496C86.7652 80.1253 86.2745 80.616 85.6345 80.968C85.0052 81.32 84.2692 81.496 83.4265 81.496C82.2745 81.496 81.3145 81.224 80.5465 80.68C79.7785 80.136 79.3252 79.3947 79.1865 78.456H80.6265C80.7865 78.9893 81.1172 79.416 81.6185 79.736C82.1198 80.0667 82.7225 80.232 83.4265 80.232C84.2265 80.232 84.8772 79.9813 85.3785 79.48C85.8905 78.9787 86.1465 78.2747 86.1465 77.368V75.528C85.8585 76.04 85.4318 76.4667 84.8665 76.808C84.3012 77.1493 83.6398 77.32 82.8825 77.32C82.1038 77.32 81.3945 77.128 80.7545 76.744C80.1252 76.36 79.6292 75.8213 79.2665 75.128C78.9038 74.4347 78.7225 73.6453 78.7225 72.76C78.7225 71.864 78.9038 71.08 79.2665 70.408C79.6292 69.7253 80.1252 69.1973 80.7545 68.824C81.3945 68.4507 82.1038 68.264 82.8825 68.264ZM86.1465 72.776C86.1465 72.1147 86.0132 71.5387 85.7465 71.048C85.4798 70.5573 85.1172 70.184 84.6585 69.928C84.2105 69.6613 83.7145 69.528 83.1705 69.528C82.6265 69.528 82.1305 69.656 81.6825 69.912C81.2345 70.168 80.8772 70.5413 80.6105 71.032C80.3438 71.5227 80.2105 72.0987 80.2105 72.76C80.2105 73.432 80.3438 74.0187 80.6105 74.52C80.8772 75.0107 81.2345 75.3893 81.6825 75.656C82.1305 75.912 82.6265 76.04 83.1705 76.04C83.7145 76.04 84.2105 75.912 84.6585 75.656C85.1172 75.3893 85.4798 75.0107 85.7465 74.52C86.0132 74.0187 86.1465 73.4373 86.1465 72.776ZM94.351 68.248C95.4177 68.248 96.2817 68.5733 96.943 69.224C97.6043 69.864 97.935 70.792 97.935 72.008V77.176H96.495V72.216C96.495 71.3413 96.2763 70.6747 95.839 70.216C95.4017 69.7467 94.8043 69.512 94.047 69.512C93.279 69.512 92.6657 69.752 92.207 70.232C91.759 70.712 91.535 71.4107 91.535 72.328V77.176H90.079V68.408H91.535V69.656C91.823 69.208 92.2123 68.8613 92.703 68.616C93.2043 68.3707 93.7537 68.248 94.351 68.248Z" fill="#282828"/>
</svg>
