<svg width="105" height="81" viewBox="0 0 105 81" fill="none" xmlns="http://www.w3.org/2000/svg">
<path d="M79.2912 31.1529L79.2642 31.1251C79.26 31.1208 79.2558 31.1166 79.2516 31.1124L73.855 25.5673C73.8533 25.5656 73.8516 25.5656 73.8499 25.5639C73.7723 25.4854 73.6812 25.4222 73.5782 25.3783C73.4753 25.3344 73.3647 25.3133 73.2551 25.3125C73.2534 25.3125 73.2517 25.3116 73.25 25.3116H66.5051V15.0761L70.2555 17.5846C70.2623 17.5888 70.2707 17.5905 70.2766 17.5947C70.2817 17.5981 70.2842 17.604 70.2901 17.6073C70.3323 17.6327 70.3779 17.6462 70.4217 17.663C70.4454 17.6723 70.4682 17.6867 70.4926 17.6934C70.5686 17.7153 70.6462 17.7272 70.723 17.7272C70.793 17.7272 70.8622 17.7179 70.9297 17.701C70.9525 17.6951 70.9744 17.6833 70.9972 17.6757C71.0402 17.6605 71.0833 17.647 71.1229 17.6251C71.1491 17.6116 71.1718 17.5913 71.1955 17.5753C71.2292 17.5525 71.2638 17.5306 71.2942 17.5027C71.3178 17.4808 71.3381 17.4529 71.3592 17.4276C71.3802 17.4023 71.4056 17.3812 71.4241 17.3525C71.4275 17.3483 71.4275 17.3433 71.43 17.3382C71.4351 17.3306 71.4418 17.3255 71.4469 17.3179L76.5086 8.88047C76.5313 8.8425 76.5347 8.80032 76.5516 8.75982C76.5727 8.70582 76.5988 8.65435 76.6081 8.59866C76.6182 8.5455 76.6149 8.49404 76.614 8.44088C76.614 8.38604 76.6166 8.33288 76.6056 8.27888C76.5946 8.22657 76.5718 8.17932 76.5516 8.12954C76.5313 8.07891 76.5136 8.02913 76.4832 7.98357C76.4529 7.93716 76.4098 7.90004 76.3693 7.86038C76.339 7.82916 76.3179 7.79119 76.2816 7.76504L67.0054 1.00575C66.9927 0.996467 66.9784 0.995627 66.9657 0.988027C66.9193 0.957657 66.8679 0.939097 66.8147 0.917997C66.7607 0.896907 66.7093 0.873277 66.6527 0.863997C66.6384 0.861467 66.6283 0.852187 66.6131 0.850497L59.8512 0.00674999C59.8318 0.00421899 59.8141 0.011813 59.7956 0.010969C59.777 0.010125 59.761 0 59.7424 0H46.2399C46.223 0 46.2095 0.00843799 46.1926 0.00928199C46.1791 0.010125 46.1673 0.00506299 46.1538 0.00674999L39.392 0.850497C39.3768 0.852187 39.3658 0.861467 39.3507 0.864847C39.2958 0.874127 39.2452 0.896907 39.192 0.917997C39.1389 0.939097 39.0857 0.957657 39.0385 0.988027C39.025 0.996467 39.0115 0.997317 38.9988 1.00575L29.7226 7.76335C29.6863 7.7895 29.6661 7.82832 29.6349 7.85869C29.5944 7.89919 29.5513 7.93632 29.521 7.98272C29.4906 8.02829 29.4729 8.07807 29.4526 8.12869C29.4324 8.17847 29.4087 8.22488 29.3986 8.27804C29.3877 8.33204 29.3902 8.38519 29.3902 8.44004C29.3893 8.49319 29.386 8.5455 29.3961 8.59866C29.4062 8.65435 29.4307 8.70582 29.4526 8.75897C29.4695 8.79863 29.472 8.84166 29.4957 8.87963L34.5573 17.3171C34.5624 17.3247 34.5691 17.3306 34.5742 17.3373C34.5776 17.3416 34.5776 17.3466 34.5801 17.3517C34.5987 17.3804 34.624 17.4023 34.6451 17.4268C34.667 17.4521 34.6864 17.4791 34.71 17.501C34.7404 17.5297 34.775 17.5508 34.8088 17.5736C34.8332 17.5905 34.856 17.6099 34.8813 17.6234C34.9218 17.6453 34.9648 17.6588 35.007 17.674C35.0298 17.6816 35.0517 17.6934 35.0745 17.6993C35.142 17.7162 35.2112 17.7255 35.2812 17.7255C35.3589 17.7255 35.4365 17.7137 35.5116 17.6917C35.5361 17.685 35.5588 17.6706 35.5825 17.6613C35.6272 17.6445 35.6719 17.6301 35.7141 17.6057C35.72 17.6023 35.7225 17.5964 35.7276 17.593C35.7352 17.5888 35.7428 17.5879 35.7487 17.5829L39.4992 15.0744V25.3108H32.75C32.7475 25.3125 32.7458 25.3133 32.7432 25.3133C32.6437 25.3142 32.545 25.3361 32.4496 25.3724C32.3357 25.4163 32.2328 25.4787 32.1501 25.5639C32.1484 25.5664 32.1467 25.5664 32.145 25.5681L26.756 31.1057C26.7459 31.1158 26.7366 31.1251 26.7265 31.1352L26.7096 31.1529C26.7054 31.1571 26.7045 31.163 26.7003 31.1673C26.2692 31.6212 26 32.2312 26 32.9062V49.7829C26 51.1785 27.1357 52.3142 28.5312 52.3142H77.4688C78.8643 52.3142 80 51.1785 80 49.7829V32.9062C80 32.2354 79.7334 31.6288 79.3064 31.1757C79.2997 31.1681 79.298 31.1597 79.2912 31.1529ZM41.1883 27.8437V13.4974C41.1883 13.4704 41.1757 13.4477 41.1732 13.4223C41.1672 13.3658 41.1554 13.3127 41.1394 13.257C41.1217 13.2004 41.1023 13.1498 41.0744 13.0984C41.0618 13.0756 41.0601 13.0503 41.0458 13.0283C41.0306 13.0055 41.0069 12.9937 40.9901 12.9735C40.9529 12.9271 40.9133 12.8874 40.8669 12.8503C40.8247 12.8165 40.7833 12.787 40.7369 12.7625C40.6897 12.7372 40.6433 12.7195 40.5918 12.7035C40.5353 12.6858 40.4804 12.6748 40.4214 12.6689C40.3952 12.6663 40.3716 12.6537 40.3446 12.6537C40.3184 12.6537 40.2957 12.6663 40.2703 12.6689C40.213 12.6739 40.1581 12.6858 40.1024 12.7035C40.0476 12.7204 39.9961 12.7406 39.9455 12.7676C39.9236 12.7803 39.8974 12.7819 39.8755 12.7971L35.5487 15.6903L31.3401 8.6746L39.8181 2.49835L45.4628 1.79382C45.9327 5.53332 49.1255 8.43835 52.9907 8.43835C56.8568 8.43835 60.0504 5.53247 60.5195 1.79128L66.1878 2.49835L74.6658 8.67291L70.4572 15.6887L66.1304 12.7954C66.1085 12.7811 66.0832 12.7786 66.0604 12.7668C66.0098 12.7389 65.9583 12.7187 65.9018 12.7018C65.8469 12.6849 65.7929 12.6731 65.7373 12.668C65.7111 12.6655 65.6883 12.6528 65.6613 12.6528C65.6335 12.6528 65.6098 12.6663 65.5828 12.6689C65.5246 12.6739 65.4698 12.6858 65.4149 12.7026C65.3626 12.7187 65.3154 12.7372 65.269 12.7625C65.2217 12.787 65.1812 12.8165 65.139 12.8503C65.0926 12.8874 65.053 12.9271 65.0158 12.9726C64.9981 12.9937 64.9745 13.0055 64.9602 13.0283C64.945 13.0503 64.9433 13.0756 64.9315 13.0984C64.9036 13.149 64.8834 13.2004 64.8665 13.2561C64.8496 13.3118 64.8387 13.365 64.8327 13.4215C64.8311 13.4477 64.8176 13.4704 64.8176 13.4966V27.8429H41.1883V27.8437ZM47.152 1.6875H58.8295C58.4186 4.54528 55.9599 6.75 52.9907 6.75C50.0216 6.75 47.5637 4.54528 47.152 1.6875ZM39.5008 27.8437H37.815C37.3484 27.8437 36.9713 28.2209 36.9713 28.6875C36.9713 29.1541 37.3484 29.5312 37.815 29.5312H68.185C68.6516 29.5312 69.0287 29.1541 69.0287 28.6875C69.0287 28.2209 68.6516 27.8437 68.185 27.8437H66.5051V27H72.8931L76.1795 30.375H29.8213L33.1061 27H39.5008V27.8437ZM33.5938 49.7829H72.4062V50.6267H33.5938V49.7829ZM78.3125 49.7829C78.3125 50.2487 77.9345 50.6267 77.4688 50.6267H74.0938V48.9392C74.0938 48.4726 73.7166 48.0954 73.25 48.0954H32.75C32.2834 48.0954 31.9062 48.4726 31.9062 48.9392V50.6267H28.5312C28.0655 50.6267 27.6875 50.2487 27.6875 49.7829V32.9062C27.6875 32.6793 27.7795 32.4751 27.9254 32.324L27.9465 32.3021C28.0984 32.1544 28.3034 32.0625 28.5312 32.0625H77.4688C77.6982 32.0625 77.9058 32.1553 78.0577 32.3046L78.0712 32.319C78.2197 32.47 78.3125 32.6776 78.3125 32.9062V49.7829Z" fill="#282828"/>
<path d="M5.584 70.432C5.98934 70.496 6.35734 70.6613 6.688 70.928C7.02934 71.1947 7.296 71.5253 7.488 71.92C7.69067 72.3147 7.792 72.736 7.792 73.184C7.792 73.7493 7.648 74.2613 7.36 74.72C7.072 75.168 6.65067 75.5253 6.096 75.792C5.552 76.048 4.90667 76.176 4.16 76.176H0V65.024H4C4.75734 65.024 5.40267 65.152 5.936 65.408C6.46934 65.6533 6.86934 65.9893 7.136 66.416C7.40267 66.8427 7.536 67.3227 7.536 67.856C7.536 68.5173 7.35467 69.0667 6.992 69.504C6.64 69.9307 6.17067 70.24 5.584 70.432ZM1.456 69.84H3.904C4.58667 69.84 5.11467 69.68 5.488 69.36C5.86134 69.04 6.048 68.5973 6.048 68.032C6.048 67.4667 5.86134 67.024 5.488 66.704C5.11467 66.384 4.576 66.224 3.872 66.224H1.456V69.84ZM4.032 74.976C4.75734 74.976 5.32267 74.8053 5.728 74.464C6.13334 74.1227 6.336 73.648 6.336 73.04C6.336 72.4213 6.12267 71.936 5.696 71.584C5.26934 71.2213 4.69867 71.04 3.984 71.04H1.456V74.976H4.032ZM11.2685 68.832C11.5245 68.3307 11.8872 67.9413 12.3565 67.664C12.8365 67.3867 13.4178 67.248 14.1005 67.248V68.752H13.7165C12.0845 68.752 11.2685 69.6373 11.2685 71.408V76.176H9.81249V67.408H11.2685V68.832ZM15.2373 71.76C15.2373 70.864 15.4186 70.08 15.7813 69.408C16.1439 68.7253 16.6399 68.1973 17.2693 67.824C17.9093 67.4507 18.6186 67.264 19.3973 67.264C20.1653 67.264 20.8319 67.4293 21.3973 67.76C21.9626 68.0907 22.3839 68.5067 22.6613 69.008V67.408H24.1333V76.176H22.6613V74.544C22.3733 75.056 21.9413 75.4827 21.3653 75.824C20.7999 76.1547 20.1386 76.32 19.3813 76.32C18.6026 76.32 17.8986 76.128 17.2693 75.744C16.6399 75.36 16.1439 74.8213 15.7813 74.128C15.4186 73.4347 15.2373 72.6453 15.2373 71.76ZM22.6613 71.776C22.6613 71.1147 22.5279 70.5387 22.2613 70.048C21.9946 69.5573 21.6319 69.184 21.1733 68.928C20.7253 68.6613 20.2293 68.528 19.6853 68.528C19.1413 68.528 18.6453 68.656 18.1973 68.912C17.7493 69.168 17.3919 69.5413 17.1253 70.032C16.8586 70.5227 16.7253 71.0987 16.7253 71.76C16.7253 72.432 16.8586 73.0187 17.1253 73.52C17.3919 74.0107 17.7493 74.3893 18.1973 74.656C18.6453 74.912 19.1413 75.04 19.6853 75.04C20.2293 75.04 20.7253 74.912 21.1733 74.656C21.6319 74.3893 21.9946 74.0107 22.2613 73.52C22.5279 73.0187 22.6613 72.4373 22.6613 71.776ZM30.8658 67.248C31.9324 67.248 32.7964 67.5733 33.4578 68.224C34.1191 68.864 34.4498 69.792 34.4498 71.008V76.176H33.0098V71.216C33.0098 70.3413 32.7911 69.6747 32.3538 69.216C31.9164 68.7467 31.3191 68.512 30.5618 68.512C29.7938 68.512 29.1804 68.752 28.7218 69.232C28.2738 69.712 28.0498 70.4107 28.0498 71.328V76.176H26.5938V67.408H28.0498V68.656C28.3378 68.208 28.7271 67.8613 29.2178 67.616C29.7191 67.3707 30.2684 67.248 30.8658 67.248ZM36.2841 71.76C36.2841 70.864 36.4655 70.08 36.8281 69.408C37.1908 68.7253 37.6868 68.1973 38.3161 67.824C38.9561 67.4507 39.6708 67.264 40.4601 67.264C41.1428 67.264 41.7775 67.424 42.3641 67.744C42.9508 68.0533 43.3988 68.464 43.7081 68.976V64.336H45.1801V76.176H43.7081V74.528C43.4201 75.0507 42.9935 75.4827 42.4281 75.824C41.8628 76.1547 41.2015 76.32 40.4441 76.32C39.6655 76.32 38.9561 76.128 38.3161 75.744C37.6868 75.36 37.1908 74.8213 36.8281 74.128C36.4655 73.4347 36.2841 72.6453 36.2841 71.76ZM43.7081 71.776C43.7081 71.1147 43.5748 70.5387 43.3081 70.048C43.0415 69.5573 42.6788 69.184 42.2201 68.928C41.7721 68.6613 41.2761 68.528 40.7321 68.528C40.1881 68.528 39.6921 68.656 39.2441 68.912C38.7961 69.168 38.4388 69.5413 38.1721 70.032C37.9055 70.5227 37.7721 71.0987 37.7721 71.76C37.7721 72.432 37.9055 73.0187 38.1721 73.52C38.4388 74.0107 38.7961 74.3893 39.2441 74.656C39.6921 74.912 40.1881 75.04 40.7321 75.04C41.2761 75.04 41.7721 74.912 42.2201 74.656C42.6788 74.3893 43.0415 74.0107 43.3081 73.52C43.5748 73.0187 43.7081 72.4373 43.7081 71.776ZM55.3783 65.024C56.5943 65.024 57.6449 65.2533 58.5303 65.712C59.4263 66.16 60.1089 66.8053 60.5783 67.648C61.0583 68.4907 61.2983 69.4827 61.2983 70.624C61.2983 71.7653 61.0583 72.7573 60.5783 73.6C60.1089 74.432 59.4263 75.072 58.5303 75.52C57.6449 75.9573 56.5943 76.176 55.3783 76.176H51.9063V65.024H55.3783ZM55.3783 74.976C56.8183 74.976 57.9169 74.5973 58.6743 73.84C59.4316 73.072 59.8103 72 59.8103 70.624C59.8103 69.2373 59.4263 68.1547 58.6583 67.376C57.9009 66.5973 56.8076 66.208 55.3783 66.208H53.3623V74.976H55.3783ZM71.2188 71.456C71.2188 71.7333 71.2028 72.0267 71.1708 72.336H64.1628C64.2161 73.2 64.5094 73.8773 65.0428 74.368C65.5868 74.848 66.2428 75.088 67.0108 75.088C67.6401 75.088 68.1628 74.944 68.5788 74.656C69.0054 74.3573 69.3041 73.9627 69.4748 73.472H71.0428C70.8081 74.3147 70.3388 75.0027 69.6348 75.536C68.9308 76.0587 68.0561 76.32 67.0108 76.32C66.1788 76.32 65.4321 76.1333 64.7708 75.76C64.1201 75.3867 63.6081 74.8587 63.2348 74.176C62.8614 73.4827 62.6748 72.6827 62.6748 71.776C62.6748 70.8693 62.8561 70.0747 63.2188 69.392C63.5814 68.7093 64.0881 68.1867 64.7388 67.824C65.4001 67.4507 66.1574 67.264 67.0108 67.264C67.8428 67.264 68.5788 67.4453 69.2188 67.808C69.8588 68.1707 70.3494 68.672 70.6908 69.312C71.0428 69.9413 71.2188 70.656 71.2188 71.456ZM69.7148 71.152C69.7148 70.5973 69.5921 70.1227 69.3468 69.728C69.1014 69.3227 68.7654 69.0187 68.3388 68.816C67.9228 68.6027 67.4588 68.496 66.9468 68.496C66.2108 68.496 65.5814 68.7307 65.0588 69.2C64.5468 69.6693 64.2534 70.32 64.1788 71.152H69.7148ZM76.2446 76.32C75.5726 76.32 74.97 76.208 74.4366 75.984C73.9033 75.7493 73.482 75.4293 73.1726 75.024C72.8633 74.608 72.6926 74.1333 72.6606 73.6H74.1646C74.2073 74.0373 74.41 74.3947 74.7726 74.672C75.146 74.9493 75.6313 75.088 76.2286 75.088C76.7833 75.088 77.2206 74.9653 77.5406 74.72C77.8606 74.4747 78.0206 74.1653 78.0206 73.792C78.0206 73.408 77.85 73.1253 77.5086 72.944C77.1673 72.752 76.6393 72.5653 75.9246 72.384C75.274 72.2133 74.7406 72.0427 74.3246 71.872C73.9193 71.6907 73.5673 71.4293 73.2686 71.088C72.9806 70.736 72.8366 70.2773 72.8366 69.712C72.8366 69.264 72.97 68.8533 73.2366 68.48C73.5033 68.1067 73.882 67.8133 74.3726 67.6C74.8633 67.376 75.4233 67.264 76.0526 67.264C77.0233 67.264 77.8073 67.5093 78.4046 68C79.002 68.4907 79.322 69.1627 79.3646 70.016H77.9086C77.8766 69.5573 77.69 69.1893 77.3486 68.912C77.018 68.6347 76.57 68.496 76.0046 68.496C75.482 68.496 75.066 68.608 74.7566 68.832C74.4473 69.056 74.2926 69.3493 74.2926 69.712C74.2926 70 74.3833 70.24 74.5646 70.432C74.7566 70.6133 74.9913 70.7627 75.2686 70.88C75.5566 70.9867 75.9513 71.1093 76.4526 71.248C77.082 71.4187 77.594 71.5893 77.9886 71.76C78.3833 71.92 78.7193 72.1653 78.9966 72.496C79.2846 72.8267 79.434 73.2587 79.4446 73.792C79.4446 74.272 79.3113 74.704 79.0446 75.088C78.778 75.472 78.3993 75.776 77.9086 76C77.4286 76.2133 76.874 76.32 76.2446 76.32ZM82.252 65.984C81.9747 65.984 81.74 65.888 81.548 65.696C81.356 65.504 81.26 65.2693 81.26 64.992C81.26 64.7147 81.356 64.48 81.548 64.288C81.74 64.096 81.9747 64 82.252 64C82.5187 64 82.7427 64.096 82.924 64.288C83.116 64.48 83.212 64.7147 83.212 64.992C83.212 65.2693 83.116 65.504 82.924 65.696C82.7427 65.888 82.5187 65.984 82.252 65.984ZM82.956 67.408V76.176H81.5V67.408H82.956ZM89.0535 67.264C89.8108 67.264 90.4722 67.4293 91.0375 67.76C91.6135 68.0907 92.0402 68.5067 92.3175 69.008V67.408H93.7895V76.368C93.7895 77.168 93.6188 77.8773 93.2775 78.496C92.9362 79.1253 92.4455 79.616 91.8055 79.968C91.1762 80.32 90.4402 80.496 89.5975 80.496C88.4455 80.496 87.4855 80.224 86.7175 79.68C85.9495 79.136 85.4962 78.3947 85.3575 77.456H86.7975C86.9575 77.9893 87.2882 78.416 87.7895 78.736C88.2908 79.0667 88.8935 79.232 89.5975 79.232C90.3975 79.232 91.0482 78.9813 91.5495 78.48C92.0615 77.9787 92.3175 77.2747 92.3175 76.368V74.528C92.0295 75.04 91.6028 75.4667 91.0375 75.808C90.4722 76.1493 89.8108 76.32 89.0535 76.32C88.2748 76.32 87.5655 76.128 86.9255 75.744C86.2962 75.36 85.8002 74.8213 85.4375 74.128C85.0748 73.4347 84.8935 72.6453 84.8935 71.76C84.8935 70.864 85.0748 70.08 85.4375 69.408C85.8002 68.7253 86.2962 68.1973 86.9255 67.824C87.5655 67.4507 88.2748 67.264 89.0535 67.264ZM92.3175 71.776C92.3175 71.1147 92.1842 70.5387 91.9175 70.048C91.6508 69.5573 91.2882 69.184 90.8295 68.928C90.3815 68.6613 89.8855 68.528 89.3415 68.528C88.7975 68.528 88.3015 68.656 87.8535 68.912C87.4055 69.168 87.0482 69.5413 86.7815 70.032C86.5148 70.5227 86.3815 71.0987 86.3815 71.76C86.3815 72.432 86.5148 73.0187 86.7815 73.52C87.0482 74.0107 87.4055 74.3893 87.8535 74.656C88.3015 74.912 88.7975 75.04 89.3415 75.04C89.8855 75.04 90.3815 74.912 90.8295 74.656C91.2882 74.3893 91.6508 74.0107 91.9175 73.52C92.1842 73.0187 92.3175 72.4373 92.3175 71.776ZM100.522 67.248C101.588 67.248 102.452 67.5733 103.114 68.224C103.775 68.864 104.106 69.792 104.106 71.008V76.176H102.666V71.216C102.666 70.3413 102.447 69.6747 102.01 69.216C101.572 68.7467 100.975 68.512 100.218 68.512C99.45 68.512 98.8367 68.752 98.378 69.232C97.93 69.712 97.706 70.4107 97.706 71.328V76.176H96.25V67.408H97.706V68.656C97.994 68.208 98.3833 67.8613 98.874 67.616C99.3753 67.3707 99.9242 67.248 100.522 67.248Z" fill="#282828"/>
</svg>
