<svg width="132" height="89" viewBox="0 0 132 89" fill="none" xmlns="http://www.w3.org/2000/svg">
<path d="M89.7649 23.6616L69.8828 3.77944C67.8274 1.72397 64.4827 1.72385 62.4271 3.77944C60.5793 5.62713 60.4201 8.44513 61.7847 10.4574L61.757 10.5958C60.3236 17.7635 56.8339 24.2843 51.6649 29.4532L42.5454 38.5726C40.485 40.6331 40.4847 43.9678 42.5454 46.0283L47.5158 50.9987C49.5761 53.059 52.911 53.0592 54.9715 50.9987L56.2142 49.756L64.9125 58.4543C66.9729 60.5149 70.3076 60.515 72.3681 58.4543C74.4237 56.3989 74.4237 53.0542 72.3681 50.9988L68.6403 47.2709L69.8829 46.0283C71.9433 43.968 71.9435 40.6333 69.8829 38.5727L69.0385 37.7281C73.1926 34.8197 77.9105 32.7948 82.9487 31.7871L83.0889 31.7591C85.1458 33.1479 87.9573 32.9246 89.7649 31.117H89.765C91.8202 29.0617 91.8202 25.7171 89.7649 23.6616ZM52.4863 48.5135C51.7996 49.2001 50.6877 49.2002 50.001 48.5133L45.0306 43.543C44.3438 42.856 44.3438 41.7446 45.0306 41.0578L53.7289 32.3594L61.1846 39.8151C60.3335 40.6661 53.3583 47.6414 52.4863 48.5135ZM69.8828 53.4838C70.5679 54.1689 70.5679 55.2838 69.8828 55.969C69.1977 56.6541 68.0827 56.6541 67.3976 55.969L58.6993 47.2707L61.1846 44.7855L69.8828 53.4838ZM63.6698 42.3003C64.198 41.772 64.9888 40.9629 66.2369 39.8969L67.3976 41.0578C68.0844 41.7446 68.0844 42.856 67.3976 43.543L66.1549 44.7856L63.6698 42.3003ZM63.7444 37.4047L56.1392 29.7995C60.2148 25.0933 63.1335 19.5381 64.695 13.5029L80.0409 28.8489C74.0058 30.4103 68.4506 33.3289 63.7444 37.4047ZM87.2794 28.6317C86.5925 29.3184 85.481 29.3184 84.7942 28.6317L64.9123 8.74982C64.2255 8.06287 64.2255 6.95146 64.9123 6.26463C65.5991 5.57779 66.7108 5.57779 67.3976 6.26463L87.2794 26.1464C87.9644 26.8316 87.9644 27.9464 87.2794 28.6317Z" fill="#282828"/>
<path d="M54.9709 38.5728C54.2848 37.8865 53.172 37.8865 52.4858 38.5728L50.0006 41.058C49.3143 41.7442 49.3143 42.8569 50.0006 43.5432C50.6867 44.2294 51.7996 44.2294 52.4858 43.5432L54.9709 41.058C55.6572 40.3717 55.6572 39.259 54.9709 38.5728Z" fill="#282828"/>
<path d="M77.9537 0C76.9831 0 76.1963 0.786795 76.1963 1.75734V5.27202C76.1963 6.24257 76.9831 7.02936 77.9537 7.02936C78.9242 7.02936 79.711 6.24257 79.711 5.27202V1.75734C79.711 0.786795 78.9242 0 77.9537 0Z" fill="#282828"/>
<path d="M92.0122 14.0586H88.4975C87.527 14.0586 86.7402 14.8454 86.7402 15.8159C86.7402 16.7865 87.527 17.5733 88.4975 17.5733H92.0122C92.9827 17.5733 93.7695 16.7865 93.7695 15.8159C93.7695 14.8454 92.9826 14.0586 92.0122 14.0586Z" fill="#282828"/>
<path d="M89.7412 4.02934C89.055 3.34309 87.9422 3.34309 87.256 4.02934L83.7413 7.54402C83.055 8.23027 83.055 9.34296 83.7413 10.0292C84.4274 10.7155 85.5402 10.7156 86.2265 10.0292L89.7412 6.51453C90.4274 5.82828 90.4274 4.7157 89.7412 4.02934Z" fill="#282828"/>
<path d="M3.472 73.024C4.688 73.024 5.73867 73.2533 6.624 73.712C7.52 74.16 8.20267 74.8053 8.672 75.648C9.152 76.4907 9.392 77.4827 9.392 78.624C9.392 79.7653 9.152 80.7573 8.672 81.6C8.20267 82.432 7.52 83.072 6.624 83.52C5.73867 83.9573 4.688 84.176 3.472 84.176H0V73.024H3.472ZM3.472 82.976C4.912 82.976 6.01067 82.5973 6.768 81.84C7.52533 81.072 7.904 80 7.904 78.624C7.904 77.2373 7.52 76.1547 6.752 75.376C5.99467 74.5973 4.90133 74.208 3.472 74.208H1.456V82.976H3.472ZM12.0645 73.984C11.7872 73.984 11.5525 73.888 11.3605 73.696C11.1685 73.504 11.0725 73.2693 11.0725 72.992C11.0725 72.7147 11.1685 72.48 11.3605 72.288C11.5525 72.096 11.7872 72 12.0645 72C12.3312 72 12.5552 72.096 12.7365 72.288C12.9285 72.48 13.0245 72.7147 13.0245 72.992C13.0245 73.2693 12.9285 73.504 12.7365 73.696C12.5552 73.888 12.3312 73.984 12.0645 73.984ZM12.7685 75.408V84.176H11.3125V75.408H12.7685ZM18.866 75.264C19.6233 75.264 20.2847 75.4293 20.85 75.76C21.426 76.0907 21.8527 76.5067 22.13 77.008V75.408H23.602V84.368C23.602 85.168 23.4313 85.8773 23.09 86.496C22.7487 87.1253 22.258 87.616 21.618 87.968C20.9887 88.32 20.2527 88.496 19.41 88.496C18.258 88.496 17.298 88.224 16.53 87.68C15.762 87.136 15.3087 86.3947 15.17 85.456H16.61C16.77 85.9893 17.1007 86.416 17.602 86.736C18.1033 87.0667 18.706 87.232 19.41 87.232C20.21 87.232 20.8607 86.9813 21.362 86.48C21.874 85.9787 22.13 85.2747 22.13 84.368V82.528C21.842 83.04 21.4153 83.4667 20.85 83.808C20.2847 84.1493 19.6233 84.32 18.866 84.32C18.0873 84.32 17.378 84.128 16.738 83.744C16.1087 83.36 15.6127 82.8213 15.25 82.128C14.8873 81.4347 14.706 80.6453 14.706 79.76C14.706 78.864 14.8873 78.08 15.25 77.408C15.6127 76.7253 16.1087 76.1973 16.738 75.824C17.378 75.4507 18.0873 75.264 18.866 75.264ZM22.13 79.776C22.13 79.1147 21.9967 78.5387 21.73 78.048C21.4633 77.5573 21.1007 77.184 20.642 76.928C20.194 76.6613 19.698 76.528 19.154 76.528C18.61 76.528 18.114 76.656 17.666 76.912C17.218 77.168 16.8607 77.5413 16.594 78.032C16.3273 78.5227 16.194 79.0987 16.194 79.76C16.194 80.432 16.3273 81.0187 16.594 81.52C16.8607 82.0107 17.218 82.3893 17.666 82.656C18.114 82.912 18.61 83.04 19.154 83.04C19.698 83.04 20.194 82.912 20.642 82.656C21.1007 82.3893 21.4633 82.0107 21.73 81.52C21.9967 81.0187 22.13 80.4373 22.13 79.776ZM26.8145 73.984C26.5372 73.984 26.3025 73.888 26.1105 73.696C25.9185 73.504 25.8225 73.2693 25.8225 72.992C25.8225 72.7147 25.9185 72.48 26.1105 72.288C26.3025 72.096 26.5372 72 26.8145 72C27.0812 72 27.3052 72.096 27.4865 72.288C27.6785 72.48 27.7745 72.7147 27.7745 72.992C27.7745 73.2693 27.6785 73.504 27.4865 73.696C27.3052 73.888 27.0812 73.984 26.8145 73.984ZM27.5185 75.408V84.176H26.0625V75.408H27.5185ZM31.776 76.608V81.776C31.776 82.2027 31.8667 82.5067 32.048 82.688C32.2293 82.8587 32.544 82.944 32.992 82.944H34.064V84.176H32.752C31.9413 84.176 31.3333 83.9893 30.928 83.616C30.5227 83.2427 30.32 82.6293 30.32 81.776V76.608H29.184V75.408H30.32V73.2H31.776V75.408H34.064V76.608H31.776ZM35.2841 79.76C35.2841 78.864 35.4655 78.08 35.8281 77.408C36.1908 76.7253 36.6868 76.1973 37.3161 75.824C37.9561 75.4507 38.6655 75.264 39.4441 75.264C40.2121 75.264 40.8788 75.4293 41.4441 75.76C42.0095 76.0907 42.4308 76.5067 42.7081 77.008V75.408H44.1801V84.176H42.7081V82.544C42.4201 83.056 41.9881 83.4827 41.4121 83.824C40.8468 84.1547 40.1855 84.32 39.4281 84.32C38.6495 84.32 37.9455 84.128 37.3161 83.744C36.6868 83.36 36.1908 82.8213 35.8281 82.128C35.4655 81.4347 35.2841 80.6453 35.2841 79.76ZM42.7081 79.776C42.7081 79.1147 42.5748 78.5387 42.3081 78.048C42.0415 77.5573 41.6788 77.184 41.2201 76.928C40.7721 76.6613 40.2761 76.528 39.7321 76.528C39.1881 76.528 38.6921 76.656 38.2441 76.912C37.7961 77.168 37.4388 77.5413 37.1721 78.032C36.9055 78.5227 36.7721 79.0987 36.7721 79.76C36.7721 80.432 36.9055 81.0187 37.1721 81.52C37.4388 82.0107 37.7961 82.3893 38.2441 82.656C38.6921 82.912 39.1881 83.04 39.7321 83.04C40.2761 83.04 40.7721 82.912 41.2201 82.656C41.6788 82.3893 42.0415 82.0107 42.3081 81.52C42.5748 81.0187 42.7081 80.4373 42.7081 79.776ZM48.0966 72.336V84.176H46.6406V72.336H48.0966ZM66.1558 73.104V84.176H64.6998V75.92L61.0198 84.176H59.9958L56.2998 75.904V84.176H54.8438V73.104H56.4118L60.5078 82.256L64.6038 73.104H66.1558ZM68.081 79.76C68.081 78.864 68.2623 78.08 68.625 77.408C68.9877 76.7253 69.4837 76.1973 70.113 75.824C70.753 75.4507 71.4623 75.264 72.241 75.264C73.009 75.264 73.6757 75.4293 74.241 75.76C74.8063 76.0907 75.2277 76.5067 75.505 77.008V75.408H76.977V84.176H75.505V82.544C75.217 83.056 74.785 83.4827 74.209 83.824C73.6437 84.1547 72.9823 84.32 72.225 84.32C71.4463 84.32 70.7423 84.128 70.113 83.744C69.4837 83.36 68.9877 82.8213 68.625 82.128C68.2623 81.4347 68.081 80.6453 68.081 79.76ZM75.505 79.776C75.505 79.1147 75.3717 78.5387 75.105 78.048C74.8383 77.5573 74.4757 77.184 74.017 76.928C73.569 76.6613 73.073 76.528 72.529 76.528C71.985 76.528 71.489 76.656 71.041 76.912C70.593 77.168 70.2357 77.5413 69.969 78.032C69.7023 78.5227 69.569 79.0987 69.569 79.76C69.569 80.432 69.7023 81.0187 69.969 81.52C70.2357 82.0107 70.593 82.3893 71.041 82.656C71.489 82.912 71.985 83.04 72.529 83.04C73.073 83.04 73.569 82.912 74.017 82.656C74.4757 82.3893 74.8383 82.0107 75.105 81.52C75.3717 81.0187 75.505 80.4373 75.505 79.776ZM80.8935 76.832C81.1495 76.3307 81.5122 75.9413 81.9815 75.664C82.4615 75.3867 83.0428 75.248 83.7255 75.248V76.752H83.3415C81.7095 76.752 80.8935 77.6373 80.8935 79.408V84.176H79.4375V75.408H80.8935V76.832ZM90.3023 84.176L86.8623 80.304V84.176H85.4063V72.336H86.8623V79.296L90.2383 75.408H92.2703L88.1423 79.776L92.2863 84.176H90.3023ZM101.64 79.456C101.64 79.7333 101.624 80.0267 101.592 80.336H94.5846C94.638 81.2 94.9313 81.8773 95.4646 82.368C96.0086 82.848 96.6646 83.088 97.4326 83.088C98.062 83.088 98.5846 82.944 99.0006 82.656C99.4273 82.3573 99.7255 81.9627 99.8965 81.472H101.465C101.23 82.3147 100.76 83.0027 100.056 83.536C99.3526 84.0587 98.478 84.32 97.4326 84.32C96.6006 84.32 95.854 84.1333 95.1926 83.76C94.542 83.3867 94.03 82.8587 93.6566 82.176C93.2833 81.4827 93.0966 80.6827 93.0966 79.776C93.0966 78.8693 93.278 78.0747 93.6406 77.392C94.0033 76.7093 94.51 76.1867 95.1606 75.824C95.822 75.4507 96.5793 75.264 97.4326 75.264C98.2646 75.264 99.0006 75.4453 99.6405 75.808C100.28 76.1707 100.771 76.672 101.112 77.312C101.464 77.9413 101.64 78.656 101.64 79.456ZM100.136 79.152C100.136 78.5973 100.014 78.1227 99.7685 77.728C99.5235 77.3227 99.1873 77.0187 98.7606 76.816C98.3446 76.6027 97.8806 76.496 97.3686 76.496C96.6326 76.496 96.0033 76.7307 95.4806 77.2C94.9686 77.6693 94.6753 78.32 94.6006 79.152H100.136ZM105.339 76.608V81.776C105.339 82.2027 105.429 82.5067 105.61 82.688C105.791 82.8587 106.106 82.944 106.554 82.944H107.626V84.176H106.314C105.503 84.176 104.896 83.9893 104.491 83.616C104.086 83.2427 103.882 82.6293 103.882 81.776V76.608H102.746V75.408H103.882V73.2H105.339V75.408H107.626V76.608H105.339ZM110.142 73.984C109.865 73.984 109.63 73.888 109.438 73.696C109.246 73.504 109.15 73.2693 109.15 72.992C109.15 72.7147 109.246 72.48 109.438 72.288C109.63 72.096 109.865 72 110.142 72C110.409 72 110.633 72.096 110.814 72.288C111.006 72.48 111.103 72.7147 111.103 72.992C111.103 73.2693 111.006 73.504 110.814 73.696C110.633 73.888 110.409 73.984 110.142 73.984ZM110.846 75.408V84.176H109.39V75.408H110.846ZM117.6 75.248C118.666 75.248 119.53 75.5733 120.192 76.224C120.853 76.864 121.184 77.792 121.184 79.008V84.176H119.744V79.216C119.744 78.3413 119.526 77.6747 119.089 77.216C118.651 76.7467 118.054 76.512 117.297 76.512C116.529 76.512 115.914 76.752 115.456 77.232C115.008 77.712 114.785 78.4107 114.785 79.328V84.176H113.328V75.408H114.785V76.656C115.073 76.208 115.461 75.8613 115.952 75.616C116.453 75.3707 117.002 75.248 117.6 75.248ZM127.178 75.264C127.935 75.264 128.598 75.4293 129.163 75.76C129.739 76.0907 130.166 76.5067 130.443 77.008V75.408H131.915V84.368C131.915 85.168 131.744 85.8773 131.403 86.496C131.062 87.1253 130.571 87.616 129.931 87.968C129.302 88.32 128.565 88.496 127.722 88.496C126.57 88.496 125.61 88.224 124.842 87.68C124.074 87.136 123.621 86.3947 123.482 85.456H124.923C125.083 85.9893 125.413 86.416 125.914 86.736C126.415 87.0667 127.018 87.232 127.722 87.232C128.522 87.232 129.173 86.9813 129.674 86.48C130.186 85.9787 130.443 85.2747 130.443 84.368V82.528C130.155 83.04 129.728 83.4667 129.163 83.808C128.598 84.1493 127.935 84.32 127.178 84.32C126.399 84.32 125.69 84.128 125.05 83.744C124.421 83.36 123.926 82.8213 123.562 82.128C123.199 81.4347 123.019 80.6453 123.019 79.76C123.019 78.864 123.199 78.08 123.562 77.408C123.926 76.7253 124.421 76.1973 125.05 75.824C125.69 75.4507 126.399 75.264 127.178 75.264ZM130.443 79.776C130.443 79.1147 130.31 78.5387 130.043 78.048C129.776 77.5573 129.413 77.184 128.954 76.928C128.506 76.6613 128.01 76.528 127.466 76.528C126.922 76.528 126.427 76.656 125.979 76.912C125.531 77.168 125.173 77.5413 124.906 78.032C124.639 78.5227 124.507 79.0987 124.507 79.76C124.507 80.432 124.639 81.0187 124.906 81.52C125.173 82.0107 125.531 82.3893 125.979 82.656C126.427 82.912 126.922 83.04 127.466 83.04C128.01 83.04 128.506 82.912 128.954 82.656C129.413 82.3893 129.776 82.0107 130.043 81.52C130.31 81.0187 130.443 80.4373 130.443 79.776Z" fill="#282828"/>
</svg>
