<svg width="111" height="73" viewBox="0 0 111 73" fill="none" xmlns="http://www.w3.org/2000/svg">
<path d="M64.0234 18.1328C63.0846 18.1328 62.2044 18.3862 61.4453 18.8265V11.6875C61.4453 10.9756 60.8682 10.3984 60.1562 10.3984C59.4443 10.3984 58.8672 10.9756 58.8672 11.6875C58.8672 12.7798 58.8672 31.6372 58.8672 32.3125C58.8672 33.0244 59.4443 33.6016 60.1562 33.6016C60.8682 33.6016 61.4453 33.0244 61.4453 32.3125C61.4453 31.4065 61.4453 24.1551 61.4453 23.2891C61.4453 21.8675 62.6019 20.7109 64.0234 20.7109C65.445 20.7109 66.6016 21.8675 66.6016 23.2891V32.3125C66.6016 33.0244 67.1787 33.6016 67.8906 33.6016C68.6025 33.6016 69.1797 33.0244 69.1797 32.3125V23.2891C69.1797 20.4459 66.8666 18.1328 64.0234 18.1328Z" fill="#282828"/>
<path d="M73.1328 0H36.8672C34.7348 0 33 1.73482 33 3.86719V40.1328C33 42.2652 34.7348 44 36.8672 44H73.1328C75.2652 44 77 42.2652 77 40.1328V3.86719C77 1.73482 75.2652 0 73.1328 0ZM74.4219 40.1328C74.4219 40.8436 73.8436 41.4219 73.1328 41.4219H36.8672C36.1564 41.4219 35.5781 40.8436 35.5781 40.1328V3.86719C35.5781 3.1564 36.1564 2.57812 36.8672 2.57812H73.1328C73.8436 2.57812 74.4219 3.1564 74.4219 3.86719V40.1328Z" fill="#282828"/>
<path d="M55 24.5781C54.2881 24.5781 53.7109 25.1553 53.7109 25.8672C53.7109 28.7103 51.3978 31.0234 48.5547 31.0234C45.7115 31.0234 43.3984 28.7103 43.3984 25.8672V18.1328C43.3984 15.2897 45.7115 12.9766 48.5547 12.9766C51.3978 12.9766 53.7109 15.2897 53.7109 18.1328C53.7109 18.8447 54.2881 19.4219 55 19.4219C55.7119 19.4219 56.2891 18.8447 56.2891 18.1328C56.2891 13.8681 52.8194 10.3984 48.5547 10.3984C44.29 10.3984 40.8203 13.8681 40.8203 18.1328V25.8672C40.8203 30.1319 44.29 33.6016 48.5547 33.6016C52.8194 33.6016 56.2891 30.1319 56.2891 25.8672C56.2891 25.1553 55.7119 24.5781 55 24.5781Z" fill="#282828"/>
<path d="M11.312 57.104V68.176H9.85597V59.92L6.17601 68.176H5.15201L1.456 59.904V68.176H0V57.104H1.568L5.66401 66.256L9.75997 57.104H11.312ZM17.6053 68.32C16.7839 68.32 16.0373 68.1333 15.3653 67.76C14.7039 67.3867 14.1813 66.8587 13.7973 66.176C13.4239 65.4827 13.2373 64.6827 13.2373 63.776C13.2373 62.88 13.4293 62.0907 13.8133 61.408C14.2079 60.7147 14.7413 60.1867 15.4133 59.824C16.0853 59.4507 16.8373 59.264 17.6693 59.264C18.5013 59.264 19.2533 59.4507 19.9253 59.824C20.5973 60.1867 21.1253 60.7093 21.5093 61.392C21.9039 62.0747 22.1013 62.8693 22.1013 63.776C22.1013 64.6827 21.8986 65.4827 21.4933 66.176C21.0986 66.8587 20.5599 67.3867 19.8773 67.76C19.1946 68.1333 18.4373 68.32 17.6053 68.32ZM17.6053 67.04C18.1279 67.04 18.6186 66.9173 19.0773 66.672C19.5359 66.4267 19.9039 66.0587 20.1813 65.568C20.4693 65.0773 20.6133 64.48 20.6133 63.776C20.6133 63.072 20.4746 62.4747 20.1973 61.984C19.9199 61.4933 19.5573 61.1307 19.1093 60.896C18.6613 60.6507 18.1759 60.528 17.6533 60.528C17.1199 60.528 16.6293 60.6507 16.1813 60.896C15.7439 61.1307 15.3919 61.4933 15.1253 61.984C14.8586 62.4747 14.7253 63.072 14.7253 63.776C14.7253 64.4907 14.8533 65.0933 15.1093 65.584C15.3759 66.0747 15.7279 66.4427 16.1653 66.688C16.6026 66.9227 17.0826 67.04 17.6053 67.04ZM25.7917 60.608V65.776C25.7917 66.2027 25.8823 66.5067 26.0637 66.688C26.245 66.8587 26.5597 66.944 27.0076 66.944H28.0797V68.176H26.7677C25.957 68.176 25.349 67.9893 24.9437 67.616C24.5383 67.2427 24.3357 66.6293 24.3357 65.776V60.608H23.1997V59.408H24.3357V57.2H25.7917V59.408H28.0797V60.608H25.7917ZM30.5958 57.984C30.3184 57.984 30.0838 57.888 29.8918 57.696C29.6998 57.504 29.6038 57.2693 29.6038 56.992C29.6038 56.7147 29.6998 56.48 29.8918 56.288C30.0838 56.096 30.3184 56 30.5958 56C30.8624 56 31.0864 56.096 31.2678 56.288C31.4598 56.48 31.5558 56.7147 31.5558 56.992C31.5558 57.2693 31.4598 57.504 31.2678 57.696C31.0864 57.888 30.8624 57.984 30.5958 57.984ZM31.2998 59.408V68.176H29.8438V59.408H31.2998ZM37.6053 68.32C36.7839 68.32 36.0373 68.1333 35.3653 67.76C34.7039 67.3867 34.1813 66.8587 33.7973 66.176C33.4239 65.4827 33.2373 64.6827 33.2373 63.776C33.2373 62.88 33.4293 62.0907 33.8133 61.408C34.2079 60.7147 34.7413 60.1867 35.4133 59.824C36.0853 59.4507 36.8373 59.264 37.6693 59.264C38.5013 59.264 39.2533 59.4507 39.9253 59.824C40.5973 60.1867 41.1253 60.7093 41.5093 61.392C41.9039 62.0747 42.1013 62.8693 42.1013 63.776C42.1013 64.6827 41.8986 65.4827 41.4933 66.176C41.0986 66.8587 40.5599 67.3867 39.8773 67.76C39.1946 68.1333 38.4373 68.32 37.6053 68.32ZM37.6053 67.04C38.1279 67.04 38.6186 66.9173 39.0773 66.672C39.5359 66.4267 39.9039 66.0587 40.1813 65.568C40.4693 65.0773 40.6133 64.48 40.6133 63.776C40.6133 63.072 40.4746 62.4747 40.1973 61.984C39.9199 61.4933 39.5573 61.1307 39.1093 60.896C38.6613 60.6507 38.1759 60.528 37.6533 60.528C37.1199 60.528 36.6293 60.6507 36.1813 60.896C35.7439 61.1307 35.3919 61.4933 35.1253 61.984C34.8586 62.4747 34.7253 63.072 34.7253 63.776C34.7253 64.4907 34.8533 65.0933 35.1093 65.584C35.3759 66.0747 35.7279 66.4427 36.1653 66.688C36.6026 66.9227 37.0826 67.04 37.6053 67.04ZM48.2877 59.248C49.3543 59.248 50.2183 59.5733 50.8797 60.224C51.541 60.864 51.8717 61.792 51.8717 63.008V68.176H50.4317V63.216C50.4317 62.3413 50.213 61.6747 49.7757 61.216C49.3383 60.7467 48.741 60.512 47.9837 60.512C47.2157 60.512 46.6023 60.752 46.1437 61.232C45.6957 61.712 45.4717 62.4107 45.4717 63.328V68.176H44.0157V59.408H45.4717V60.656C45.7597 60.208 46.149 59.8613 46.6397 59.616C47.141 59.3707 47.6903 59.248 48.2877 59.248ZM61.9876 57.024C63.2037 57.024 64.2543 57.2533 65.1397 57.712C66.0357 58.16 66.7183 58.8053 67.1877 59.648C67.6677 60.4907 67.9077 61.4827 67.9077 62.624C67.9077 63.7653 67.6677 64.7573 67.1877 65.6C66.7183 66.432 66.0357 67.072 65.1397 67.52C64.2543 67.9573 63.2037 68.176 61.9876 68.176H58.5157V57.024H61.9876ZM61.9876 66.976C63.4277 66.976 64.5263 66.5973 65.2837 65.84C66.041 65.072 66.4197 64 66.4197 62.624C66.4197 61.2373 66.0357 60.1547 65.2677 59.376C64.5103 58.5973 63.417 58.208 61.9876 58.208H59.9717V66.976H61.9876ZM77.8282 63.456C77.8282 63.7333 77.8122 64.0267 77.7802 64.336H70.7722C70.8255 65.2 71.1188 65.8773 71.6522 66.368C72.1962 66.848 72.8522 67.088 73.6202 67.088C74.2495 67.088 74.7722 66.944 75.1882 66.656C75.6148 66.3573 75.9135 65.9627 76.0842 65.472H77.6522C77.4175 66.3147 76.9482 67.0027 76.2442 67.536C75.5402 68.0587 74.6655 68.32 73.6202 68.32C72.7882 68.32 72.0415 68.1333 71.3802 67.76C70.7295 67.3867 70.2175 66.8587 69.8442 66.176C69.4708 65.4827 69.2842 64.6827 69.2842 63.776C69.2842 62.8693 69.4655 62.0747 69.8282 61.392C70.1908 60.7093 70.6975 60.1867 71.3482 59.824C72.0095 59.4507 72.7668 59.264 73.6202 59.264C74.4522 59.264 75.1882 59.4453 75.8282 59.808C76.4682 60.1707 76.9588 60.672 77.3002 61.312C77.6522 61.9413 77.8282 62.656 77.8282 63.456ZM76.3242 63.152C76.3242 62.5973 76.2015 62.1227 75.9562 61.728C75.7108 61.3227 75.3748 61.0187 74.9482 60.816C74.5322 60.6027 74.0682 60.496 73.5562 60.496C72.8202 60.496 72.1908 60.7307 71.6682 61.2C71.1562 61.6693 70.8628 62.32 70.7882 63.152H76.3242ZM82.854 68.32C82.182 68.32 81.5794 68.208 81.046 67.984C80.5127 67.7493 80.0914 67.4293 79.782 67.024C79.4727 66.608 79.302 66.1333 79.27 65.6H80.774C80.8167 66.0373 81.0194 66.3947 81.382 66.672C81.7554 66.9493 82.2407 67.088 82.838 67.088C83.3927 67.088 83.83 66.9653 84.15 66.72C84.47 66.4747 84.63 66.1653 84.63 65.792C84.63 65.408 84.4594 65.1253 84.118 64.944C83.7767 64.752 83.2487 64.5653 82.534 64.384C81.8834 64.2133 81.35 64.0427 80.934 63.872C80.5287 63.6907 80.1767 63.4293 79.878 63.088C79.59 62.736 79.446 62.2773 79.446 61.712C79.446 61.264 79.5794 60.8533 79.846 60.48C80.1127 60.1067 80.4914 59.8133 80.982 59.6C81.4727 59.376 82.0327 59.264 82.662 59.264C83.6327 59.264 84.4167 59.5093 85.014 60C85.6114 60.4907 85.9314 61.1627 85.974 62.016H84.518C84.486 61.5573 84.2994 61.1893 83.958 60.912C83.6274 60.6347 83.1794 60.496 82.614 60.496C82.0914 60.496 81.6754 60.608 81.366 60.832C81.0567 61.056 80.902 61.3493 80.902 61.712C80.902 62 80.9927 62.24 81.174 62.432C81.366 62.6133 81.6007 62.7627 81.878 62.88C82.166 62.9867 82.5607 63.1093 83.062 63.248C83.6914 63.4187 84.2034 63.5893 84.598 63.76C84.9927 63.92 85.3287 64.1653 85.606 64.496C85.894 64.8267 86.0434 65.2587 86.054 65.792C86.054 66.272 85.9207 66.704 85.654 67.088C85.3874 67.472 85.0087 67.776 84.518 68C84.038 68.2133 83.4834 68.32 82.854 68.32ZM88.8614 57.984C88.5841 57.984 88.3494 57.888 88.1574 57.696C87.9654 57.504 87.8694 57.2693 87.8694 56.992C87.8694 56.7147 87.9654 56.48 88.1574 56.288C88.3494 56.096 88.5841 56 88.8614 56C89.1281 56 89.3521 56.096 89.5334 56.288C89.7254 56.48 89.8214 56.7147 89.8214 56.992C89.8214 57.2693 89.7254 57.504 89.5334 57.696C89.3521 57.888 89.1281 57.984 88.8614 57.984ZM89.5654 59.408V68.176H88.1094V59.408H89.5654ZM95.6629 59.264C96.4202 59.264 97.0816 59.4293 97.6469 59.76C98.2229 60.0907 98.6496 60.5067 98.9269 61.008V59.408H100.399V68.368C100.399 69.168 100.228 69.8773 99.8869 70.496C99.5459 71.1253 99.0549 71.616 98.4149 71.968C97.7856 72.32 97.0496 72.496 96.2069 72.496C95.0549 72.496 94.0949 72.224 93.3269 71.68C92.5589 71.136 92.1056 70.3947 91.9669 69.456H93.4069C93.5669 69.9893 93.8976 70.416 94.3989 70.736C94.9002 71.0667 95.5029 71.232 96.2069 71.232C97.0069 71.232 97.6576 70.9813 98.1589 70.48C98.6709 69.9787 98.9269 69.2747 98.9269 68.368V66.528C98.6389 67.04 98.2122 67.4667 97.6469 67.808C97.0816 68.1493 96.4202 68.32 95.6629 68.32C94.8842 68.32 94.1749 68.128 93.5349 67.744C92.9056 67.36 92.4096 66.8213 92.0469 66.128C91.6842 65.4347 91.5029 64.6453 91.5029 63.76C91.5029 62.864 91.6842 62.08 92.0469 61.408C92.4096 60.7253 92.9056 60.1973 93.5349 59.824C94.1749 59.4507 94.8842 59.264 95.6629 59.264ZM98.9269 63.776C98.9269 63.1147 98.7936 62.5387 98.5269 62.048C98.2602 61.5573 97.8976 61.184 97.4389 60.928C96.9909 60.6613 96.4949 60.528 95.9509 60.528C95.4069 60.528 94.9109 60.656 94.4629 60.912C94.0149 61.168 93.6576 61.5413 93.3909 62.032C93.1242 62.5227 92.9909 63.0987 92.9909 63.76C92.9909 64.432 93.1242 65.0187 93.3909 65.52C93.6576 66.0107 94.0149 66.3893 94.4629 66.656C94.9109 66.912 95.4069 67.04 95.9509 67.04C96.4949 67.04 96.9909 66.912 97.4389 66.656C97.8976 66.3893 98.2602 66.0107 98.5269 65.52C98.7936 65.0187 98.9269 64.4373 98.9269 63.776ZM107.132 59.248C108.198 59.248 109.062 59.5733 109.724 60.224C110.385 60.864 110.716 61.792 110.716 63.008V68.176H109.276V63.216C109.276 62.3413 109.057 61.6747 108.62 61.216C108.182 60.7467 107.585 60.512 106.828 60.512C106.06 60.512 105.446 60.752 104.988 61.232C104.54 61.712 104.316 62.4107 104.316 63.328V68.176H102.86V59.408H104.316V60.656C104.604 60.208 104.993 59.8613 105.484 59.616C105.985 59.3707 106.534 59.248 107.132 59.248Z" fill="#282828"/>
</svg>
