<svg width="70" height="70" viewBox="0 0 70 70" fill="none" xmlns="http://www.w3.org/2000/svg">
<rect width="70" height="70" rx="16" fill="#FF4C60"/>
<path d="M49.5929 42.2047L45.2856 37.9064C43.7473 36.3713 41.1322 36.9854 40.5169 38.981C40.0554 40.3626 38.5171 41.1302 37.1326 40.8231C34.056 40.0555 29.9025 36.0643 29.1334 32.8407C28.6719 31.459 29.5949 29.9239 30.9793 29.4635C32.9791 28.8494 33.5945 26.2398 32.0562 24.7047L27.7489 20.4065C26.5182 19.3319 24.6723 19.3319 23.5954 20.4065L20.6726 23.3232C17.7499 26.3933 20.9803 34.5292 28.2104 41.7441C35.4404 48.959 43.5935 52.3362 46.6701 49.266L49.5929 46.3494C50.6698 45.1213 50.6698 43.2792 49.5929 42.2047Z" fill="white"/>
</svg>
