<svg width="104" height="75" viewBox="0 0 104 75" fill="none" xmlns="http://www.w3.org/2000/svg">
<path d="M31 2.53027V41.4691H75V2.53027H31ZM60.1673 5.1084L55.3164 10.9613H33.5781V5.1084H60.1673ZM72.4219 38.8909H33.5781V13.5394H56.5281L63.5158 5.1084H72.4219V38.8909Z" fill="#282828"/>
<path d="M36.5288 6.74951H39.1069V9.34199H36.5288V6.74951Z" fill="#282828"/>
<path d="M41.2837 6.74951H43.8618V9.34199H41.2837V6.74951Z" fill="#282828"/>
<path d="M46.0391 6.74951H48.6172V9.34199H46.0391V6.74951Z" fill="#282828"/>
<path d="M48.5825 27.9727C48.5825 29.181 47.5995 30.1641 46.3911 30.1641C45.1827 30.1641 44.1997 29.181 44.1997 27.9727V19.9375H41.6216V27.9727C41.6216 30.6026 43.7612 32.7422 46.3911 32.7422C49.0211 32.7422 51.1606 30.6026 51.1606 27.9727V19.9375H48.5825V27.9727Z" fill="#282828"/>
<path d="M60.8962 19.8945L58.7919 23.6843L56.6877 19.8945H53.7388L57.3175 26.3398L53.7388 32.7852H56.6877L58.7919 28.9954L60.8962 32.7852H63.8452L60.2664 26.3398L63.8452 19.8945H60.8962Z" fill="#282828"/>
<path d="M3.0935 56.848V63.904C3.0935 64.896 3.3335 65.632 3.8135 66.112C4.30417 66.592 4.9815 66.832 5.8455 66.832C6.69883 66.832 7.3655 66.592 7.8455 66.112C8.33617 65.632 8.5815 64.896 8.5815 63.904V56.848H10.0375V63.888C10.0375 64.816 9.85083 65.6 9.4775 66.24C9.10417 66.8693 8.5975 67.3387 7.9575 67.648C7.32817 67.9573 6.61883 68.112 5.8295 68.112C5.04017 68.112 4.3255 67.9573 3.6855 67.648C3.05617 67.3387 2.55483 66.8693 2.1815 66.24C1.81883 65.6 1.6375 64.816 1.6375 63.888V56.848H3.0935ZM13.9224 56.848V68H12.4664V56.848H13.9224ZM22.4839 61.52V62.752H16.0999V61.52H22.4839ZM26.6404 56.848V63.904C26.6404 64.896 26.8804 65.632 27.3604 66.112C27.851 66.592 28.5284 66.832 29.3924 66.832C30.2457 66.832 30.9124 66.592 31.3924 66.112C31.883 65.632 32.1284 64.896 32.1284 63.904V56.848H33.5844V63.888C33.5844 64.816 33.3977 65.6 33.0244 66.24C32.651 66.8693 32.1444 67.3387 31.5044 67.648C30.875 67.9573 30.1657 68.112 29.3764 68.112C28.587 68.112 27.8724 67.9573 27.2324 67.648C26.603 67.3387 26.1017 66.8693 25.7284 66.24C25.3657 65.6 25.1844 64.816 25.1844 63.888V56.848H26.6404ZM40.5733 62.432L43.9973 68H42.3493L39.6773 63.648L37.1332 68H35.5173L38.9253 62.432L35.5013 56.848H37.1332L39.8213 61.216L42.3813 56.848H44.0133L40.5733 62.432ZM53.6884 56.848C54.9044 56.848 55.955 57.0773 56.8404 57.536C57.7364 57.984 58.419 58.6293 58.8884 59.472C59.3684 60.3147 59.6084 61.3067 59.6084 62.448C59.6084 63.5893 59.3684 64.5813 58.8884 65.424C58.419 66.256 57.7364 66.896 56.8404 67.344C55.955 67.7813 54.9044 68 53.6884 68H50.2164V56.848H53.6884ZM53.6884 66.8C55.1284 66.8 56.227 66.4213 56.9844 65.664C57.7417 64.896 58.1204 63.824 58.1204 62.448C58.1204 61.0613 57.7364 59.9787 56.9684 59.2C56.211 58.4213 55.1177 58.032 53.6884 58.032H51.6724V66.8H53.6884ZM69.5289 63.28C69.5289 63.5573 69.5129 63.8507 69.4809 64.16H62.4729C62.5262 65.024 62.8195 65.7013 63.3529 66.192C63.8969 66.672 64.5529 66.912 65.3209 66.912C65.9502 66.912 66.4729 66.768 66.8889 66.48C67.3155 66.1813 67.6142 65.7867 67.7849 65.296H69.3529C69.1182 66.1387 68.6489 66.8267 67.9449 67.36C67.2409 67.8827 66.3662 68.144 65.3209 68.144C64.4889 68.144 63.7422 67.9573 63.0809 67.584C62.4302 67.2107 61.9182 66.6827 61.5449 66C61.1715 65.3067 60.9849 64.5067 60.9849 63.6C60.9849 62.6933 61.1662 61.8987 61.5289 61.216C61.8915 60.5333 62.3982 60.0107 63.0489 59.648C63.7102 59.2747 64.4675 59.088 65.3209 59.088C66.1529 59.088 66.8889 59.2693 67.5289 59.632C68.1689 59.9947 68.6595 60.496 69.0009 61.136C69.3529 61.7653 69.5289 62.48 69.5289 63.28ZM68.0249 62.976C68.0249 62.4213 67.9022 61.9467 67.6569 61.552C67.4115 61.1467 67.0755 60.8427 66.6489 60.64C66.2329 60.4267 65.7689 60.32 65.2569 60.32C64.5209 60.32 63.8915 60.5547 63.3689 61.024C62.8569 61.4933 62.5635 62.144 62.4889 62.976H68.0249ZM74.5548 68.144C73.8828 68.144 73.2801 68.032 72.7468 67.808C72.2134 67.5733 71.7921 67.2533 71.4828 66.848C71.1734 66.432 71.0028 65.9573 70.9708 65.424H72.4748C72.5174 65.8613 72.7201 66.2187 73.0828 66.496C73.4561 66.7733 73.9414 66.912 74.5388 66.912C75.0934 66.912 75.5308 66.7893 75.8508 66.544C76.1708 66.2987 76.3308 65.9893 76.3308 65.616C76.3308 65.232 76.1601 64.9493 75.8188 64.768C75.4774 64.576 74.9494 64.3893 74.2348 64.208C73.5841 64.0373 73.0508 63.8667 72.6348 63.696C72.2294 63.5147 71.8774 63.2533 71.5788 62.912C71.2908 62.56 71.1468 62.1013 71.1468 61.536C71.1468 61.088 71.2801 60.6773 71.5468 60.304C71.8134 59.9307 72.1921 59.6373 72.6828 59.424C73.1734 59.2 73.7334 59.088 74.3628 59.088C75.3334 59.088 76.1174 59.3333 76.7148 59.824C77.3121 60.3147 77.6321 60.9867 77.6748 61.84H76.2188C76.1868 61.3813 76.0001 61.0133 75.6588 60.736C75.3281 60.4587 74.8801 60.32 74.3148 60.32C73.7921 60.32 73.3761 60.432 73.0668 60.656C72.7574 60.88 72.6028 61.1733 72.6028 61.536C72.6028 61.824 72.6934 62.064 72.8748 62.256C73.0668 62.4373 73.3014 62.5867 73.5788 62.704C73.8668 62.8107 74.2614 62.9333 74.7628 63.072C75.3921 63.2427 75.9041 63.4133 76.2988 63.584C76.6934 63.744 77.0294 63.9893 77.3068 64.32C77.5948 64.6507 77.7441 65.0827 77.7548 65.616C77.7548 66.096 77.6214 66.528 77.3548 66.912C77.0881 67.296 76.7094 67.6 76.2188 67.824C75.7388 68.0373 75.1841 68.144 74.5548 68.144ZM80.5621 57.808C80.2848 57.808 80.0501 57.712 79.8581 57.52C79.6661 57.328 79.5701 57.0933 79.5701 56.816C79.5701 56.5387 79.6661 56.304 79.8581 56.112C80.0501 55.92 80.2848 55.824 80.5621 55.824C80.8288 55.824 81.0528 55.92 81.2341 56.112C81.4261 56.304 81.5221 56.5387 81.5221 56.816C81.5221 57.0933 81.4261 57.328 81.2341 57.52C81.0528 57.712 80.8288 57.808 80.5621 57.808ZM81.2661 59.232V68H79.8101V59.232H81.2661ZM87.3636 59.088C88.121 59.088 88.7823 59.2533 89.3476 59.584C89.9236 59.9147 90.3503 60.3307 90.6276 60.832V59.232H92.0996V68.192C92.0996 68.992 91.929 69.7013 91.5876 70.32C91.2463 70.9493 90.7556 71.44 90.1156 71.792C89.4863 72.144 88.7503 72.32 87.9076 72.32C86.7556 72.32 85.7956 72.048 85.0276 71.504C84.2596 70.96 83.8063 70.2187 83.6676 69.28H85.1076C85.2676 69.8133 85.5983 70.24 86.0996 70.56C86.601 70.8907 87.2036 71.056 87.9076 71.056C88.7076 71.056 89.3583 70.8053 89.8596 70.304C90.3716 69.8027 90.6276 69.0987 90.6276 68.192V66.352C90.3396 66.864 89.913 67.2907 89.3476 67.632C88.7823 67.9733 88.121 68.144 87.3636 68.144C86.585 68.144 85.8756 67.952 85.2356 67.568C84.6063 67.184 84.1103 66.6453 83.7476 65.952C83.385 65.2587 83.2036 64.4693 83.2036 63.584C83.2036 62.688 83.385 61.904 83.7476 61.232C84.1103 60.5493 84.6063 60.0213 85.2356 59.648C85.8756 59.2747 86.585 59.088 87.3636 59.088ZM90.6276 63.6C90.6276 62.9387 90.4943 62.3627 90.2276 61.872C89.961 61.3813 89.5983 61.008 89.1396 60.752C88.6916 60.4853 88.1956 60.352 87.6516 60.352C87.1076 60.352 86.6116 60.48 86.1636 60.736C85.7156 60.992 85.3583 61.3653 85.0916 61.856C84.825 62.3467 84.6916 62.9227 84.6916 63.584C84.6916 64.256 84.825 64.8427 85.0916 65.344C85.3583 65.8347 85.7156 66.2133 86.1636 66.48C86.6116 66.736 87.1076 66.864 87.6516 66.864C88.1956 66.864 88.6916 66.736 89.1396 66.48C89.5983 66.2133 89.961 65.8347 90.2276 65.344C90.4943 64.8427 90.6276 64.2613 90.6276 63.6ZM98.8321 59.072C99.8988 59.072 100.763 59.3973 101.424 60.048C102.085 60.688 102.416 61.616 102.416 62.832V68H100.976V63.04C100.976 62.1653 100.757 61.4987 100.32 61.04C99.8828 60.5707 99.2855 60.336 98.5281 60.336C97.7601 60.336 97.1468 60.576 96.6881 61.056C96.2401 61.536 96.0161 62.2347 96.0161 63.152V68H94.5601V59.232H96.0161V60.48C96.3041 60.032 96.6935 59.6853 97.1841 59.44C97.6855 59.1947 98.2348 59.072 98.8321 59.072Z" fill="#282828"/>
</svg>
