<svg width="94" height="72" viewBox="0 0 94 72" fill="none" xmlns="http://www.w3.org/2000/svg">
<path d="M14.88 56.024L11.6481 67.176H10.0161L7.424 58.2L4.736 67.176L3.12 67.192L0 56.024H1.552L3.984 65.48L6.672 56.024H8.304L10.864 65.448L13.312 56.024H14.88ZM24.4734 62.456C24.4734 62.7333 24.4574 63.0267 24.4254 63.336H17.4174C17.4708 64.2 17.764 64.8773 18.2973 65.368C18.8413 65.848 19.4974 66.088 20.2654 66.088C20.8948 66.088 21.4173 65.944 21.8333 65.656C22.26 65.3573 22.5587 64.9627 22.7293 64.472H24.2973C24.0627 65.3147 23.5934 66.0027 22.8894 66.536C22.1854 67.0587 21.3108 67.32 20.2654 67.32C19.4334 67.32 18.6868 67.1333 18.0254 66.76C17.3748 66.3867 16.8627 65.8587 16.4893 65.176C16.116 64.4827 15.9293 63.6827 15.9293 62.776C15.9293 61.8693 16.1108 61.0747 16.4734 60.392C16.8361 59.7093 17.3427 59.1867 17.9933 58.824C18.6547 58.4507 19.4121 58.264 20.2654 58.264C21.0974 58.264 21.8334 58.4453 22.4734 58.808C23.1134 59.1707 23.6041 59.672 23.9454 60.312C24.2974 60.9413 24.4734 61.656 24.4734 62.456ZM22.9694 62.152C22.9694 61.5973 22.8468 61.1227 22.6014 60.728C22.3561 60.3227 22.02 60.0187 21.5933 59.816C21.1773 59.6027 20.7133 59.496 20.2013 59.496C19.4653 59.496 18.8361 59.7307 18.3134 60.2C17.8014 60.6693 17.508 61.32 17.4333 62.152H22.9694ZM27.8512 60.04C28.1499 59.5173 28.5872 59.0907 29.1632 58.76C29.7392 58.4293 30.3953 58.264 31.1313 58.264C31.9206 58.264 32.63 58.4507 33.2593 58.824C33.8886 59.1973 34.3845 59.7253 34.7472 60.408C35.1099 61.08 35.2912 61.864 35.2912 62.76C35.2912 63.6453 35.1099 64.4347 34.7472 65.128C34.3845 65.8213 33.8833 66.36 33.2433 66.744C32.614 67.128 31.91 67.32 31.1313 67.32C30.374 67.32 29.7073 67.1547 29.1313 66.824C28.566 66.4933 28.1392 66.072 27.8512 65.56V67.176H26.3953V55.336H27.8512V60.04ZM33.8032 62.76C33.8032 62.0987 33.67 61.5227 33.4033 61.032C33.1366 60.5413 32.774 60.168 32.3153 59.912C31.8673 59.656 31.3712 59.528 30.8272 59.528C30.2939 59.528 29.798 59.6613 29.3393 59.928C28.8913 60.184 28.5285 60.5627 28.2512 61.064C27.9845 61.5547 27.8512 62.1253 27.8512 62.776C27.8512 63.4373 27.9845 64.0187 28.2512 64.52C28.5285 65.0107 28.8913 65.3893 29.3393 65.656C29.798 65.912 30.2939 66.04 30.8272 66.04C31.3712 66.04 31.8673 65.912 32.3153 65.656C32.774 65.3893 33.1366 65.0107 33.4033 64.52C33.67 64.0187 33.8032 63.432 33.8032 62.76ZM44.9454 56.024C46.1614 56.024 47.2121 56.2533 48.0974 56.712C48.9934 57.16 49.6761 57.8053 50.1454 58.648C50.6254 59.4907 50.8653 60.4827 50.8653 61.624C50.8653 62.7653 50.6254 63.7573 50.1454 64.6C49.6761 65.432 48.9934 66.072 48.0974 66.52C47.2121 66.9573 46.1614 67.176 44.9454 67.176H41.4734V56.024H44.9454ZM44.9454 65.976C46.3854 65.976 47.484 65.5973 48.2413 64.84C48.9987 64.072 49.3773 63 49.3773 61.624C49.3773 60.2373 48.9933 59.1547 48.2253 58.376C47.468 57.5973 46.3748 57.208 44.9454 57.208H42.9294V65.976H44.9454ZM60.7859 62.456C60.7859 62.7333 60.7699 63.0267 60.7379 63.336H53.7299C53.7833 64.2 54.0766 64.8773 54.6099 65.368C55.1539 65.848 55.8099 66.088 56.5779 66.088C57.2073 66.088 57.7299 65.944 58.1459 65.656C58.5726 65.3573 58.8713 64.9627 59.0419 64.472H60.6099C60.3753 65.3147 59.9059 66.0027 59.2019 66.536C58.4979 67.0587 57.6233 67.32 56.5779 67.32C55.7459 67.32 54.9992 67.1333 54.3378 66.76C53.6872 66.3867 53.1752 65.8587 52.8018 65.176C52.4285 64.4827 52.2419 63.6827 52.2419 62.776C52.2419 61.8693 52.4233 61.0747 52.7859 60.392C53.1486 59.7093 53.6553 59.1867 54.3059 58.824C54.9673 58.4507 55.7246 58.264 56.5779 58.264C57.4099 58.264 58.1459 58.4453 58.7859 58.808C59.4259 59.1707 59.9166 59.672 60.2579 60.312C60.6099 60.9413 60.7859 61.656 60.7859 62.456ZM59.2818 62.152C59.2818 61.5973 59.1592 61.1227 58.9138 60.728C58.6685 60.3227 58.3325 60.0187 57.9058 59.816C57.4898 59.6027 57.0259 59.496 56.5139 59.496C55.7779 59.496 55.1486 59.7307 54.6259 60.2C54.1139 60.6693 53.8205 61.32 53.7458 62.152H59.2818ZM65.8118 67.32C65.1398 67.32 64.5371 67.208 64.0038 66.984C63.4705 66.7493 63.049 66.4293 62.7397 66.024C62.4304 65.608 62.2597 65.1333 62.2277 64.6H63.7317C63.7744 65.0373 63.9771 65.3947 64.3398 65.672C64.7131 65.9493 65.1985 66.088 65.7958 66.088C66.3505 66.088 66.7878 65.9653 67.1078 65.72C67.4278 65.4747 67.5878 65.1653 67.5878 64.792C67.5878 64.408 67.4171 64.1253 67.0758 63.944C66.7345 63.752 66.2065 63.5653 65.4918 63.384C64.8411 63.2133 64.3078 63.0427 63.8918 62.872C63.4865 62.6907 63.1345 62.4293 62.8358 62.088C62.5478 61.736 62.4038 61.2773 62.4038 60.712C62.4038 60.264 62.537 59.8533 62.8037 59.48C63.0704 59.1067 63.449 58.8133 63.9397 58.6C64.4304 58.376 64.9905 58.264 65.6198 58.264C66.5905 58.264 67.3745 58.5093 67.9718 59C68.5691 59.4907 68.8891 60.1627 68.9318 61.016H67.4758C67.4438 60.5573 67.2571 60.1893 66.9158 59.912C66.5851 59.6347 66.1371 59.496 65.5718 59.496C65.0491 59.496 64.6331 59.608 64.3238 59.832C64.0145 60.056 63.8598 60.3493 63.8598 60.712C63.8598 61 63.9505 61.24 64.1318 61.432C64.3238 61.6133 64.5585 61.7627 64.8358 61.88C65.1238 61.9867 65.5185 62.1093 66.0198 62.248C66.6491 62.4187 67.1611 62.5893 67.5558 62.76C67.9505 62.92 68.2865 63.1653 68.5638 63.496C68.8518 63.8267 69.0011 64.2587 69.0118 64.792C69.0118 65.272 68.8785 65.704 68.6118 66.088C68.3451 66.472 67.9665 66.776 67.4758 67C66.9958 67.2133 66.4411 67.32 65.8118 67.32ZM71.8192 56.984C71.5418 56.984 71.3072 56.888 71.1152 56.696C70.9232 56.504 70.8272 56.2693 70.8272 55.992C70.8272 55.7147 70.9232 55.48 71.1152 55.288C71.3072 55.096 71.5418 55 71.8192 55C72.0858 55 72.3098 55.096 72.4912 55.288C72.6832 55.48 72.7792 55.7147 72.7792 55.992C72.7792 56.2693 72.6832 56.504 72.4912 56.696C72.3098 56.888 72.0858 56.984 71.8192 56.984ZM72.5232 58.408V67.176H71.0672V58.408H72.5232ZM78.6207 58.264C79.378 58.264 80.0393 58.4293 80.6047 58.76C81.1807 59.0907 81.6073 59.5067 81.8847 60.008V58.408H83.3567V67.368C83.3567 68.168 83.186 68.8773 82.8447 69.496C82.5033 70.1253 82.0127 70.616 81.3727 70.968C80.7433 71.32 80.0073 71.496 79.1647 71.496C78.0127 71.496 77.0527 71.224 76.2847 70.68C75.5167 70.136 75.0633 69.3947 74.9247 68.456H76.3647C76.5247 68.9893 76.8553 69.416 77.3567 69.736C77.858 70.0667 78.4607 70.232 79.1647 70.232C79.9647 70.232 80.6153 69.9813 81.1167 69.48C81.6287 68.9787 81.8847 68.2747 81.8847 67.368V65.528C81.5967 66.04 81.17 66.4667 80.6047 66.808C80.0393 67.1493 79.378 67.32 78.6207 67.32C77.842 67.32 77.1327 67.128 76.4927 66.744C75.8633 66.36 75.3673 65.8213 75.0047 65.128C74.642 64.4347 74.4607 63.6453 74.4607 62.76C74.4607 61.864 74.642 61.08 75.0047 60.408C75.3673 59.7253 75.8633 59.1973 76.4927 58.824C77.1327 58.4507 77.842 58.264 78.6207 58.264ZM81.8847 62.776C81.8847 62.1147 81.7513 61.5387 81.4847 61.048C81.218 60.5573 80.8553 60.184 80.3967 59.928C79.9487 59.6613 79.4527 59.528 78.9087 59.528C78.3647 59.528 77.8687 59.656 77.4207 59.912C76.9727 60.168 76.6153 60.5413 76.3487 61.032C76.082 61.5227 75.9487 62.0987 75.9487 62.76C75.9487 63.432 76.082 64.0187 76.3487 64.52C76.6153 65.0107 76.9727 65.3893 77.4207 65.656C77.8687 65.912 78.3647 66.04 78.9087 66.04C79.4527 66.04 79.9487 65.912 80.3967 65.656C80.8553 65.3893 81.218 65.0107 81.4847 64.52C81.7513 64.0187 81.8847 63.4373 81.8847 62.776ZM90.0892 58.248C91.1558 58.248 92.0198 58.5733 92.6812 59.224C93.3425 59.864 93.6732 60.792 93.6732 62.008V67.176H92.2332V62.216C92.2332 61.3413 92.0145 60.6747 91.5772 60.216C91.1398 59.7467 90.5425 59.512 89.7852 59.512C89.0172 59.512 88.4038 59.752 87.9452 60.232C87.4972 60.712 87.2732 61.4107 87.2732 62.328V67.176H85.8172V58.408H87.2732V59.656C87.5612 59.208 87.9505 58.8613 88.4412 58.616C88.9425 58.3707 89.4918 58.248 90.0892 58.248Z" fill="#282828"/>
<g clip-path="url(#clip0)">
<path d="M74.9418 1.11987C73.5526 -0.269485 71.3572 -0.380007 69.8354 0.863109L56.4048 11.8341H33.6913C31.6212 11.8341 29.937 13.5178 29.937 15.5873V38.2152C29.937 40.2848 31.6212 41.9685 33.6913 41.9685H44.361V45.1872H41.9961C41.2196 45.1872 40.59 45.8168 40.59 46.5933C40.59 47.3699 41.2196 47.9995 41.9961 47.9995H57.043C57.8195 47.9995 58.4491 47.3699 58.4491 46.5933C58.4491 45.8168 57.8195 45.1872 57.043 45.1872H54.678V41.9685H65.3478C67.418 41.9685 69.1022 40.2848 69.1022 38.2152V13.6969L75.1997 6.22461C76.4414 4.70308 76.3306 2.50847 74.9418 1.11987ZM55.4989 17.4621C55.5421 16.6147 55.9282 15.853 56.5878 15.3158L58.9273 13.4047L62.6626 17.1401L60.7471 19.4875C60.2107 20.1432 59.4493 20.5276 58.6033 20.5698C57.7564 20.6126 56.9611 20.3055 56.3621 19.7064C55.7622 19.1065 55.4555 18.3094 55.4989 17.4621ZM54.3697 26.5346C53.7466 27.1577 52.7088 27.4446 51.2854 27.3875C50.2066 27.3441 49.2827 27.4199 48.4999 27.561C48.6409 26.7783 48.7167 25.8538 48.6734 24.7755C48.6162 23.352 48.9031 22.3144 49.5262 21.6912C50.1731 21.0444 51.0332 20.6881 51.948 20.6881C52.8628 20.6881 53.7228 21.0443 54.3696 21.6912C55.705 23.0266 55.705 25.1993 54.3697 26.5346ZM51.8658 45.1873H47.1733V41.9685H51.8658V45.1873ZM66.2899 38.2152C66.2899 38.7341 65.8673 39.1562 65.3478 39.1562H33.6913C33.1719 39.1562 32.7493 38.7341 32.7493 38.2152V37.0155H66.2899V38.2152ZM66.2899 34.2032H32.7493V15.5873C32.7493 15.0684 33.1719 14.6463 33.6913 14.6463H53.5064C53.0252 15.4496 52.7389 16.3659 52.6902 17.3187C52.6799 17.5203 52.6805 17.7214 52.6913 17.9211C52.4463 17.8922 52.1985 17.8757 51.9481 17.8757C50.2821 17.8757 48.7158 18.5245 47.5378 19.7026C46.3368 20.9035 45.7736 22.6483 45.8635 24.8883C45.9834 27.8699 44.9948 29.0667 44.9178 29.1552C44.3916 29.7059 44.3992 30.579 44.9406 31.1204C45.2151 31.395 45.575 31.5323 45.9349 31.5323C46.2845 31.5323 46.6343 31.4027 46.9057 31.1434C46.9937 31.0667 48.1908 30.0779 51.1726 30.1975C53.4134 30.2877 55.1574 29.7243 56.3585 28.5233C57.7617 27.12 58.3534 25.209 58.1372 23.3762C58.2435 23.3821 58.3501 23.3858 58.4571 23.3858C58.5524 23.3858 58.648 23.3835 58.7436 23.3787C60.3696 23.2975 61.8933 22.5283 62.9251 21.2669L66.2901 17.1433L66.2899 34.2032ZM46.929 31.1205C46.929 31.1205 46.9221 31.1283 46.9073 31.1419C46.9146 31.1348 46.9218 31.1277 46.929 31.1205ZM44.9405 29.1319C44.9332 29.1391 44.9262 29.1463 44.9192 29.1535C44.9328 29.1388 44.9405 29.1319 44.9405 29.1319ZM73.0208 4.44669L64.4496 14.9501L61.1162 11.6168L71.6145 3.04112C71.8 2.88954 72.0237 2.81473 72.2468 2.81473C72.5031 2.81473 72.7583 2.91363 72.9531 3.10843C73.3173 3.47252 73.3464 4.04782 73.0208 4.44669Z" fill="#282828"/>
</g>
<defs>
<clipPath id="clip0">
<rect width="48" height="48" fill="white" transform="translate(29)"/>
</clipPath>
</defs>
</svg>
